<?xml version="1.0" standalone="no"?><!DOCTYPE svg PUBLIC "-//W3C//DTD SVG 1.1//EN" "http://www.w3.org/Graphics/SVG/1.1/DTD/svg11.dtd"><svg t="1681313263385" class="icon" viewBox="0 0 1024 1024" version="1.1" xmlns="http://www.w3.org/2000/svg" p-id="8222" xmlns:xlink="http://www.w3.org/1999/xlink" width="200" height="200"><path d="M973.824 278.186667l-136.533333-85.333334c-10.581333-6.485333-23.893333-6.826667-34.474667-1.024-10.922667 6.144-17.749333 17.749333-17.749333 30.037334V273.066667H318.122667L88.064 108.885333a33.792 33.792 0 0 0-40.96 1.024c-11.946667 9.216-16.042667 25.258667-10.581333 39.253334L99.669333 307.2l-63.146666 158.037333c-5.461333 13.994667-1.365333 30.037333 10.581333 39.594667 6.144 4.778667 13.653333 7.168 21.162667 7.168 6.826667 0 13.994667-2.048 19.797333-6.485333L318.122667 341.333333H477.866667v307.2h-68.266667v341.333334h68.266667v-273.066667h68.266666v273.066667h68.266667V648.533333h-68.266667v-307.2h238.933334v51.2c0 12.288 6.826667 23.893333 17.749333 29.696 5.12 2.730667 10.922667 4.437333 16.384 4.437334 6.144 0 12.629333-1.706667 18.090667-5.12l136.533333-85.333334c9.898667-6.144 16.042667-17.408 16.042667-29.013333s-6.144-22.869333-16.042667-29.013333z" p-id="8223" fill="#1296db"></path></svg>