<?xml version="1.0" standalone="no"?><!DOCTYPE svg PUBLIC "-//W3C//DTD SVG 1.1//EN" "http://www.w3.org/Graphics/SVG/1.1/DTD/svg11.dtd"><svg t="1681464148576" class="icon" viewBox="0 0 1024 1024" version="1.1" xmlns="http://www.w3.org/2000/svg" p-id="48873" xmlns:xlink="http://www.w3.org/1999/xlink" width="200" height="200"><path d="M512 66.133333a149.461333 149.461333 0 0 1 149.376 144.32l0.085333 5.141334v51.584h-42.944v42.666666h42.944v-42.666666h22.037334a21.333333 21.333333 0 0 1 2.496 42.538666l-2.496 0.128h-22.037334v40.490667h-42.944v42.666667h42.922667l0.021333-42.666667h22.037334a21.333333 21.333333 0 0 1 2.496 42.538667l-2.496 0.128h-22.058667v40.490666h-42.922667v42.666667h42.922667v-42.666667h22.058667a21.333333 21.333333 0 0 1 2.496 42.538667l-2.496 0.128h-22.058667l0.021333 84.8 3.392 2.709333a239.637333 239.637333 0 0 1 86.72 170.581334l0.32 7.210666 0.106667 7.253334c0 132.565333-107.456 240-240 240s-240-107.434667-240-240c0-70.378667 30.570667-135.573333 81.770667-180.48l5.376-4.565334 3.370666-2.709333V215.594667a149.482667 149.482667 0 0 1 139.242667-149.12l5.12-0.256L512 66.133333z m0 85.333334c-34.133333 0-62.08 26.688-64.021333 60.373333l-0.106667 3.754667-0.021333 367.189333a42.666667 42.666667 0 0 1-19.541334 35.84 154.666667 154.666667 0 1 0 167.381334 0 42.666667 42.666667 0 0 1-19.392-32.234667l-0.149334-3.626666v-367.146667A64.128 64.128 0 0 0 512 151.466667z" fill="#22A6FF" p-id="48874"></path><path d="M500.928 1011.584l5.525333 0.170667 5.546667 0.064-11.072-0.021334-0.426667 10.453334c3.84 0.149333 7.68 0.213333 11.690667 0.213333l5.333333-0.042667 5.333334-0.149333-0.405334-10.474667H512c3.498667 0 6.976-0.064 10.453333-0.192l-0.405333-10.666666a265.813333 265.813333 0 0 1-20.693333 0l-0.426667 10.666666z m-21.504 0.213333h-21.888l-1.024 5.226667c7.232 1.429333 14.528 2.602667 21.888 3.477333l1.024-8.704z m86.997333 0h-21.888l1.045334 8.704c7.36-0.874667 14.656-2.026667 21.888-3.477333l-1.045334-5.226667z m-107.84-5.248c6.933333 1.386667 13.973333 2.517333 21.098667 3.349334l1.237333-10.581334a260.394667 260.394667 0 0 1-20.245333-3.2l-2.090667 10.453334z m106.816 0l-2.090666-10.453333c-6.698667 1.344-13.44 2.410667-20.266667 3.2l1.28 10.602667c7.104-0.853333 14.144-1.962667 21.077333-3.328z m40.704-11.477333l-3.712-10.005333c-6.4 2.346667-12.906667 4.48-19.477333 6.336l2.88 10.261333c6.890667-1.92 13.653333-4.138667 20.309333-6.613333z m-188.736-0.213333c6.613333 2.474667 13.397333 4.693333 20.266667 6.634666l2.922667-10.24a258.88 258.88 0 0 1-19.477334-6.378666l-3.712 10.005333z m228.010667-17.984l-5.248-9.301334c-5.952 3.370667-12.032 6.485333-18.218667 9.386667l4.48 9.664c6.485333-3.008 12.8-6.272 18.986667-9.749333z m-267.285333-0.298667c6.186667 3.498667 12.501333 6.762667 18.944 9.792l4.522666-9.664c-6.186667-2.901333-12.245333-6.037333-18.197333-9.408l-5.269333 9.28z m-35.029334-23.658667c5.568 4.416 11.306667 8.618667 17.216 12.608l5.973334-8.832c-5.674667-3.84-11.2-7.893333-16.533334-12.117333l-6.656 8.341333z m337.834667 0.042667l-6.613333-8.384c-5.354667 4.266667-10.88 8.32-16.554667 12.117333l5.973333 8.853334c5.888-3.968 11.626667-8.170667 17.194667-12.586667z m31.36-29.226667l-7.850667-7.210666a262.698667 262.698667 0 0 1-14.592 14.677333l7.274667 7.808a273.365333 273.365333 0 0 0 15.189333-15.296z m-400.896-0.426666c2.773333 3.050667 5.632 6.016 8.533333 8.938666l6.570667 6.336 7.274667-7.786666-6.186667-5.973334c-2.901333-2.922667-5.632-5.76-8.32-8.704l-7.872 7.189334z m-26.24-33.664c3.946667 5.973333 8.106667 11.733333 12.48 17.365333l8.384-6.592a261.845333 261.845333 0 0 1-11.946667-16.64l-8.896 5.866667z m453.738667 0.021333l-8.896-5.888c-3.776 5.717333-7.765333 11.264-11.946667 16.64l8.384 6.592c4.373333-5.610667 8.533333-11.392 12.458667-17.344z m20.48-37.013333l-9.685334-4.416a260.053333 260.053333 0 0 1-9.237333 18.304l9.344 5.162666c3.413333-6.186667 6.634667-12.565333 9.6-19.050666z m-494.933334-0.490667c2.965333 6.485333 6.144 12.842667 9.578667 19.050667l9.344-5.141334c-3.306667-5.973333-6.378667-12.096-9.194667-18.325333l-9.706666 4.416z m509.674667-40.192l-10.282667-2.816c-1.813333 6.613333-3.861333 13.098667-6.186666 19.52l10.026666 3.626667c2.410667-6.677333 4.565333-13.44 6.442667-20.330667z m-524.330667-0.597333c1.877333 6.890667 4.010667 13.696 6.4 20.373333l10.026667-3.626667a258.88 258.88 0 0 1-6.122667-19.541333l-10.304 2.773333z m533.930667-41.322667v21.824l5.738667 1.088c1.365333-7.253333 2.453333-14.549333 3.264-21.930667l-9.002667-0.981333z m-543.381333-0.042667l-8.96 0.981334 0.874666 7.36c0.661333 4.885333 1.450667 9.749333 2.368 14.570666l5.717334-1.088v-21.824z m541.781333-0.128l-10.624-1.152c-0.725333 6.826667-1.749333 13.568-3.008 20.266667l10.474667 1.984c1.322667-6.933333 2.368-13.973333 3.157333-21.098667z m-540.16-0.021333c0.789333 7.125333 1.834667 14.144 3.136 21.077333l10.496-1.984c-1.28-6.698667-2.282667-13.44-3.029333-20.266666l-10.602667 1.173333z m541.76-42.88v13.141333l-0.106667-7.957333-0.213333-5.162667-10.666667 0.512c0.213333 4.117333 0.32 8.234667 0.32 12.373334l-0.128 8.384 10.666667 0.32 0.128-8.469334v8.469334l10.538667 0.341333a292.053333 292.053333 0 0 0-0.213334-22.442667l-10.325333 0.490667z m-543.381333-0.533333l-10.304-0.512c-0.213333 4.736-0.341333 9.472-0.341334 14.336l0.106667 7.978666 10.538667-0.32 0.021333-7.786666 0.106667 7.786666 10.666666-0.277333-0.106666-7.381333c0-4.501333 0.106667-8.896 0.32-13.269334l-10.666667-0.533333-0.234667 6.826667-0.085333 6.826666-0.021333-13.674666z m5.802666-42.261334a271.573333 271.573333 0 0 0-3.541333 21.013334l10.56 1.365333c0.874667-6.784 2.026667-13.525333 3.413333-20.202667l-10.453333-2.176z m535.338667 20.906667a271.573333 271.573333 0 0 0-3.562667-21.013333l-10.453333 2.176c1.408 6.698667 2.56 13.44 3.434667 20.224l10.581333-1.386667z m-545.792-23.104l-1.408 7.253333a282.453333 282.453333 0 0 0-2.261333 14.613334l8.32 1.045333v-21.930667l-4.650667-0.981333z m548.032 0.853333v21.952l8.32-1.066666a282.24 282.24 0 0 0-3.669333-21.845334l-4.650667 0.96z m-10.88-19.029333c-1.984-6.826667-4.266667-13.589333-6.762667-20.224l-9.984 3.797333c2.432 6.4 4.608 12.864 6.528 19.413334l10.24-2.986667z m-514.624-20.757333c-2.538667 6.613333-4.821333 13.376-6.826667 20.202666l10.24 3.008c1.92-6.549333 4.117333-13.013333 6.549334-19.413333l-9.962667-3.797333z m499.178667-19.797334a270.677333 270.677333 0 0 0-9.941334-18.88l-9.237333 5.333334c3.413333 5.909333 6.613333 11.946667 9.536 18.133333l9.642667-4.586667z m-480.490667-19.349333c-3.584 6.144-6.912 12.437333-9.984 18.858667l9.621333 4.608c2.965333-6.165333 6.144-12.202667 9.578667-18.133334l-9.216-5.333333z m23.957333-34.773333c-4.48 5.525333-8.746667 11.242667-12.8 17.109333l8.810667 6.016c3.861333-5.632 7.957333-11.093333 12.266667-16.426667l-8.277334-6.72z m435.050667 16.981333a271.338667 271.338667 0 0 0-12.778667-17.066667l-8.277333 6.698667c4.309333 5.312 8.405333 10.794667 12.288 16.426667l8.768-6.058667z m-39.210667-49.322667h-10.666666v8.704l3.434666 3.178667c4.074667 3.754667 8.021333 7.658667 11.84 11.669333l7.744-7.338666a272.128 272.128 0 0 0-12.330666-12.16l-0.021334-4.053334z m-369.344-0.789333v4.842667l-5.568 5.290666c-2.176 2.133333-4.330667 4.309333-6.442666 6.528l7.722666 7.36c3.648-3.84 7.424-7.552 11.306667-11.136l3.2-2.986666 0.426667-9.386667-10.645334-0.512z m369.344-41.877333h-10.666666v21.333333h10.666666v-21.333333z m-358.677333-0.768l-10.666667-0.021334v21.333334h10.666667v-21.333334z m358.677333-41.898667h-10.666666v21.333333h10.666666v-21.333333z m-358.677333-0.768l-10.666667-0.021333v21.333333h10.666667v-21.333333z m358.677333-41.898667h-10.666666v21.333334h10.666666v-21.333334z m-358.656-0.768l-10.688-0.021333v21.333333h10.666667v-21.333333z m358.656-41.898666h-10.666666v21.333333h10.666666v-21.333333z m-358.656-0.768l-10.688-0.021334v21.333334h10.666667v-21.333334z m358.656-41.898667h-10.666666v21.333333h10.666666v-21.333333z m-358.656-0.768l-10.688-0.021333v21.333333h10.666667v-21.333333z m358.656-41.898667h-10.666666v21.333334h10.666666v-21.333334z m-358.656-0.768l-10.688-0.021333v21.333333h10.666667v-21.333333z m358.656-41.898666h-10.666666v21.333333h10.666666v-21.333333z m-358.656-0.768l-10.688-0.021334v21.333334h10.666667v-21.333334z m358.4-19.669334a185.130667 185.130667 0 0 0-2.368-21.205333l-10.517333 1.792c1.109333 6.592 1.856 13.248 2.218667 19.989333l10.666666-0.576zM330.666667 194.858667c-1.301333 6.890667-2.261333 13.952-2.837334 21.162666l10.645334 0.853334c0.533333-6.784 1.429333-13.44 2.666666-20.010667l-10.474666-1.984z m358.165333-20.48a183.296 183.296 0 0 0-7.338667-20.032l-9.792 4.266666c2.666667 6.122667 4.970667 12.437333 6.912 18.858667l10.218667-3.093333z m-345.6-20.352a188.586667 188.586667 0 0 0-7.424 20.010666l10.197333 3.136a177.92 177.92 0 0 1 6.997334-18.858666l-9.770667-4.266667z m328.469333-19.029334a184.96 184.96 0 0 0-11.754666-17.770666l-8.533334 6.378666c4.010667 5.354667 7.701333 10.965333 11.093334 16.746667l9.194666-5.354667z m-306.624-18.432a186.624 186.624 0 0 0-11.818666 17.749334l9.194666 5.397333c3.413333-5.802667 7.125333-11.392 11.157334-16.746667l-8.533334-6.4z m277.482667-19.413333a185.770667 185.770667 0 0 0-12.096-11.093333l-6.848 8.192c3.882667 3.242667 7.616 6.677333 11.221333 10.24l3.605334 3.712 7.722666-7.317334-3.626666-3.754666zM394.24 85.76c-4.117333 3.456-8.106667 7.125333-11.946667 10.944l-3.626666 3.733333 7.765333 7.338667 3.349333-3.477333c3.669333-3.648 7.424-7.104 11.328-10.368l-6.869333-8.170667z m219.242667-12.330667a184.469333 184.469333 0 0 0-18.453334-10.688l-4.821333 9.514667c5.973333 3.029333 11.797333 6.4 17.386667 10.069333l5.888-8.896z m-183.616-11.093333a181.76 181.76 0 0 0-18.474667 10.645333l5.866667 8.917334a171.093333 171.093333 0 0 1 17.408-10.048l-4.8-9.536z m144.96-8.32a183.232 183.232 0 0 0-20.458667-6.08l-2.432 10.389333c6.528 1.536 12.949333 3.456 19.242667 5.717334l3.648-10.026667z m-104.341334-6.293333a181.162667 181.162667 0 0 0-20.48 5.973333l3.605334 10.048c6.293333-2.24 12.714667-4.117333 19.264-5.632l-2.389334-10.389333zM512 32.384v21.333333c6.741333 0 13.44 0.384 20.074667 1.152l1.216-10.602666a186.026667 186.026667 0 0 0-14.122667-1.066667L512 43.050667h21.418667l1.088-9.386667c-7.424-0.853333-14.933333-1.28-22.506667-1.28z m-0.341333 10.666667l-6.485334 0.128c-4.608 0.170667-9.173333 0.490667-13.696 1.002666l1.152 10.602667a176.853333 176.853333 0 0 1 19.072-1.066667l-0.042666-10.666666z m43.861333 0h20.181333l2.773334 0.938666c-7.082667-2.56-14.293333-4.693333-21.653334-6.421333l-1.301333 5.482667z m-87.402667-5.738667l-7.317333 1.834667a191.68 191.68 0 0 0-12.586667 3.882666l21.226667 0.021334-1.322667-5.738667z m43.52-4.906667l-7.146666 0.128a197.333333 197.333333 0 0 0-14.208 1.045334l1.045333 9.472h20.330667v-10.666667z" fill="#22A6FF" p-id="48875"></path><path d="M512 240.768c16.170667 0 29.290667 13.12 29.290667 29.312l0.021333 375.722667a111.957333 111.957333 0 1 1-58.624 0V270.08c0-16.192 13.141333-29.312 29.312-29.312z" fill="#22A6FF" p-id="48876"></path><path d="M471.893333 723.2a1159.04 1159.04 0 0 0 80.213334 0 34.197333 34.197333 0 0 1 35.413333 34.176 26.944 26.944 0 0 1-32.597333 26.368A205.269333 205.269333 0 0 0 512 779.157333c-14.293333 0-28.608 1.536-42.922667 4.586667a26.944 26.944 0 0 1-32.576-26.368 34.197333 34.197333 0 0 1 35.370667-34.176z" fill="#FFFFFF" p-id="48877"></path><path d="M470.698667 723.178667l1.173333 0.021333a1159.04 1159.04 0 0 0 80.256 0 34.197333 34.197333 0 0 1 35.349333 33.002667l0.021334 1.173333a26.944 26.944 0 0 1-32.576 26.368A205.269333 205.269333 0 0 0 512 779.157333c-14.293333 0-28.608 1.536-42.922667 4.586667a26.944 26.944 0 0 1-32.576-26.368c0-18.88 15.317333-34.197333 34.197334-34.197333z m0.597333 17.066666h-0.597333a17.130667 17.130667 0 0 0-17.130667 17.130667 9.877333 9.877333 0 0 0 11.946667 9.664 220.906667 220.906667 0 0 1 83.690666-1.792l9.28 1.792a9.898667 9.898667 0 0 0 11.946667-9.664v-0.597333a17.130667 17.130667 0 0 0-17.706667-16.533334 1176.106667 1176.106667 0 0 1-81.429333 0z" fill="#000000" p-id="48878"></path><path d="M294.357333 634.858667m-62.762666 0a62.762667 62.762667 0 1 0 125.525333 0 62.762667 62.762667 0 1 0-125.525333 0Z" fill="#FFFFFF" p-id="48879"></path><path d="M294.357333 572.096a62.762667 62.762667 0 1 1 0 125.546667 62.762667 62.762667 0 0 1 0-125.546667z m0 21.333333a41.429333 41.429333 0 1 0 0 82.88 41.429333 41.429333 0 0 0 0-82.88z" fill="#000000" p-id="48880"></path><path d="M294.357333 607.936c0.981333 0 1.813333 0.704 2.005334 1.621333l0.042666 0.426667v2.88l2.389334-2.133333a2.048 2.048 0 0 1 2.986666 2.773333l-0.277333 0.277333-5.12 4.544v3.797334l7.978667 4.608 3.285333-1.898667 1.386667-6.677333a2.048 2.048 0 0 1 4.053333 0.426666l-0.042667 0.384-0.64 3.136 2.496-1.450666a2.048 2.048 0 0 1 2.368 3.285333l-0.32 0.256-2.517333 1.429333 3.029333 1.024a2.048 2.048 0 0 1-0.874666 3.946667l-0.405334-0.085333-6.485333-2.133334-3.285333 1.877334v9.216l3.285333 1.898666 6.485333-2.133333a2.048 2.048 0 0 1 1.664 3.690667l-0.384 0.170666-3.029333 1.002667 2.517333 1.450667a2.048 2.048 0 0 1-1.664 3.690666l-0.384-0.149333-2.517333-1.472 0.64 3.136a2.048 2.048 0 0 1-3.84 1.216l-0.149333-0.384-1.365334-6.698667-3.285333-1.898666-7.978667 4.608v3.797333l5.098667 4.544a2.048 2.048 0 0 1-2.389333 3.285333l-0.32-0.234666-2.389334-2.133334v2.901334a2.048 2.048 0 0 1-4.053333 0.426666l-0.021333-0.426666v-2.901334l-2.389334 2.133334a2.048 2.048 0 0 1-2.986666-2.752l0.277333-0.298667 5.098667-4.544V647.616l-7.978667-4.608-3.285333 1.92-1.386667 6.677333a2.048 2.048 0 0 1-4.032-0.426666l0.042667-0.405334 0.64-3.114666-2.517334 1.450666a2.048 2.048 0 0 1-2.346666-3.306666l0.32-0.234667 2.517333-1.450667-3.029333-1.002666a2.048 2.048 0 0 1 0.853333-3.968l0.426667 0.085333 6.485333 2.154667 3.264-1.898667v-9.216l-3.285333-1.877333-6.485334 2.133333a2.048 2.048 0 0 1-1.642666-3.690667l0.384-0.170666 3.029333-1.002667-2.517333-1.450667a2.048 2.048 0 0 1 1.664-3.712l0.362666 0.170667 2.517334 1.450667-0.64-3.136a2.048 2.048 0 0 1 3.861333-1.216l0.128 0.405333 1.386667 6.677333 3.285333 1.898667 7.978667-4.608v-3.797333l-5.12-4.544A2.048 2.048 0 0 1 289.621333 610.496l0.341334 0.256 2.389333 2.133333v-2.922666c0-1.109333 0.917333-2.026667 2.026667-2.026667z m0 19.242667l-6.656 3.84v7.68l6.656 3.84 6.656-3.84v-7.68l-6.656-3.84z" fill="#000000" p-id="48881"></path><path d="M727.168 634.858667m-62.762667 0a62.762667 62.762667 0 1 0 125.525334 0 62.762667 62.762667 0 1 0-125.525334 0Z" fill="#FFFFFF" p-id="48882"></path><path d="M727.168 572.096a62.762667 62.762667 0 1 1 0 125.546667 62.762667 62.762667 0 0 1 0-125.546667z m0 21.333333a41.429333 41.429333 0 1 0 0 82.88 41.429333 41.429333 0 0 0 0-82.88z" fill="#000000" p-id="48883"></path><path d="M727.168 607.936c0.981333 0 1.813333 0.704 2.005333 1.621333l0.042667 0.426667v2.88l2.389333-2.133333a2.048 2.048 0 0 1 2.986667 2.773333l-0.277333 0.277333-5.12 4.544v3.797334l7.978666 4.608 3.285334-1.898667 1.386666-6.677333a2.048 2.048 0 0 1 4.053334 0.426666l-0.042667 0.384-0.64 3.136 2.496-1.450666a2.048 2.048 0 0 1 2.368 3.285333l-0.32 0.256-2.517333 1.429333 3.029333 1.024a2.048 2.048 0 0 1-0.874667 3.946667l-0.405333-0.085333-6.485333-2.133334-3.285334 1.877334v9.216l3.285334 1.898666 6.485333-2.133333a2.048 2.048 0 0 1 1.664 3.690667l-0.384 0.170666-3.029333 1.002667 2.517333 1.450667a2.048 2.048 0 0 1-1.664 3.690666l-0.384-0.149333-2.517333-1.472 0.64 3.136a2.048 2.048 0 0 1-3.84 1.216l-0.149334-0.384-1.365333-6.698667-3.285333-1.898666-7.978667 4.608v3.797333l5.098667 4.544a2.048 2.048 0 0 1-2.389334 3.285333l-0.32-0.234666-2.389333-2.133334v2.901334a2.048 2.048 0 0 1-4.053333 0.426666l-0.021334-0.426666v-2.901334l-2.389333 2.133334a2.048 2.048 0 0 1-2.986667-2.752l0.277334-0.298667 5.098666-4.544V647.616l-7.978666-4.608-3.285334 1.92-1.386666 6.677333a2.048 2.048 0 0 1-4.032-0.426666l0.042666-0.405334 0.64-3.114666-2.517333 1.450666a2.048 2.048 0 0 1-2.346667-3.306666l0.32-0.234667 2.517334-1.450667-3.029334-1.002666a2.048 2.048 0 0 1 0.853334-3.968l0.426666 0.085333 6.485334 2.154667 3.264-1.898667v-9.216l-3.285334-1.877333-6.485333 2.133333a2.048 2.048 0 0 1-1.642667-3.690667l0.384-0.170666 3.029334-1.002667-2.517334-1.450667a2.048 2.048 0 0 1 1.664-3.712l0.362667 0.170667 2.517333 1.450667-0.64-3.136a2.048 2.048 0 0 1 3.861334-1.216l0.128 0.405333 1.386666 6.677333 3.285334 1.898667 7.978666-4.608v-3.797333l-5.12-4.544A2.048 2.048 0 0 1 722.432 610.496l0.341333 0.256 2.389334 2.133333v-2.922666c0-1.109333 0.917333-2.026667 2.026666-2.026667z m0 19.242667l-6.656 3.84v7.68l6.656 3.84 6.656-3.84v-7.68l-6.656-3.84z" fill="#000000" p-id="48884"></path><path d="M724.053333 718.229333c0.981333 0 1.792 0.704 1.984 1.621334l0.042667 0.426666v2.901334l2.389333-2.133334a2.048 2.048 0 0 1 2.986667 2.752l-0.277333 0.298667-5.098667 4.544v3.797333l7.978667 4.586667 3.285333-1.898667 1.386667-6.677333a2.048 2.048 0 0 1 4.053333 0.426667l-0.064 0.405333-0.64 3.114667 2.517333-1.450667a2.048 2.048 0 0 1 2.346667 3.306667l-0.32 0.213333-2.517333 1.472 3.050666 1.002667a2.048 2.048 0 0 1-0.896 3.968l-0.384-0.106667-6.506666-2.133333-3.285334 1.898666v9.194667l3.306667 1.92 6.485333-2.154667a2.048 2.048 0 0 1 1.642667 3.690667l-0.362667 0.170667-3.050666 1.002666 2.517333 1.450667a2.048 2.048 0 0 1-1.664 3.712l-0.362667-0.170667-2.517333-1.450666 0.64 3.136a2.048 2.048 0 0 1-3.861333 1.216l-0.128-0.405334-1.386667-6.677333-3.285333-1.92-7.978667 4.608v3.797333l5.12 4.544a2.048 2.048 0 0 1-2.389333 3.285334l-0.341334-0.213334-2.389333-2.133333v2.901333a2.048 2.048 0 0 1-4.032 0.405334l-0.042667-0.426667v-2.901333l-2.389333 2.133333a2.048 2.048 0 0 1-2.986667-2.730667l0.277334-0.32 5.12-4.544v-3.776l-8-4.608-3.264 1.898667-1.386667 6.677333a2.048 2.048 0 0 1-4.053333-0.426666l0.042666-0.384 0.64-3.136-2.496 1.450666a2.048 2.048 0 0 1-2.368-3.285333l0.32-0.256 2.517334-1.450667-3.029334-1.002666a2.048 2.048 0 0 1 0.874667-3.946667l0.405333 0.085333 6.485334 2.133334 3.285333-1.898667v-9.194667l-3.285333-1.898666-6.485334 2.133333a2.048 2.048 0 0 1-1.664-3.690667l0.384-0.170666 3.029334-1.002667-2.517334-1.450667a2.048 2.048 0 0 1 1.664-3.712l0.384 0.170667 2.517334 1.472-0.64-3.136a2.048 2.048 0 0 1 3.84-1.237333l0.149333 0.405333 1.365333 6.698667 3.285334 1.877333 7.978666-4.608v-3.776l-5.098666-4.544a2.048 2.048 0 0 1 2.389333-3.285333l0.32 0.234666 2.389333 2.133334v-2.901334c0-1.130667 0.917333-2.048 2.048-2.048z m0 19.264l-6.656 3.84v7.68l6.634667 3.84 6.656-3.84v-7.68l-6.656-3.84zM737.856 816.192c0.554667 0 1.024 0.384 1.130667 0.917333l0.021333 0.213334v1.642666l1.344-1.194666a1.152 1.152 0 0 1 1.706667 1.557333l-0.170667 0.170667-2.88 2.56v2.133333l4.48 2.602667 1.877333-1.066667 0.768-3.776a1.152 1.152 0 0 1 2.282667 0.213333l-0.021333 0.256-0.362667 1.749334 1.408-0.810667a1.152 1.152 0 0 1 1.344 1.856l-0.192 0.128-1.408 0.832 1.706667 0.554667a1.152 1.152 0 0 1-0.490667 2.24l-0.234667-0.042667-3.648-1.216-1.856 1.066667v5.184l1.856 1.066666 3.648-1.194666a1.152 1.152 0 0 1 0.938667 2.090666l-0.213333 0.085334-1.706667 0.576 1.408 0.810666a1.152 1.152 0 0 1-0.938667 2.090667l-0.213333-0.106667-1.408-0.810666 0.362667 1.770666a1.152 1.152 0 0 1-2.176 0.682667l-0.085334-0.213333-0.768-3.776-1.856-1.066667-4.48 2.581333v2.133334l2.858667 2.56a1.152 1.152 0 0 1-1.344 1.877333l-0.192-0.149333-1.344-1.194667v1.642667a1.152 1.152 0 0 1-2.282667 0.213333v-1.856l-1.365333 1.194667a1.152 1.152 0 0 1-1.685333-1.536l0.170666-0.170667 2.858667-2.56v-2.133333l-4.48-2.602667-1.856 1.066667-0.789333 3.776a1.152 1.152 0 0 1-2.261334-0.234667v-0.234667l0.384-1.770666-1.429333 0.810666a1.152 1.152 0 0 1-1.322667-1.856l0.170667-0.128 1.429333-0.810666-1.706666-0.576a1.152 1.152 0 0 1 0.490666-2.24l0.213334 0.064 3.669333 1.216 1.856-1.066667v-5.205333l-1.856-1.066667-3.648 1.216a1.152 1.152 0 0 1-0.938667-2.090667l0.213334-0.106666 1.706666-0.554667-1.429333-0.832a1.152 1.152 0 0 1 0.938667-2.069333l0.213333 0.085333 1.429333 0.810667-0.362666-1.749334a1.152 1.152 0 0 1 2.176-0.704l0.064 0.213334 0.789333 3.797333 1.856 1.066667 4.48-2.602667v-2.133333l-2.858667-2.56a1.152 1.152 0 0 1 1.322667-1.856l0.213333 0.128 1.322667 1.194666v-1.621333c0-0.64 0.533333-1.152 1.152-1.152z m0 10.858667l-3.754667 2.154666v4.330667l3.754667 2.176 3.754667-2.176v-4.330667l-3.754667-2.154666z" fill="#FFFFFF" p-id="48885"></path><path d="M162.538667 180.522667l0.981333-0.149334a3.562667 3.562667 0 0 0 2.24-1.813333 3.712 3.712 0 0 0 0.32-2.88 3.882667 3.882667 0 0 0-1.92-2.346667 58.752 58.752 0 0 1-14.762667-10.88c-4.672-4.629333-7.466667-9.557333-8.384-14.826666a3.605333 3.605333 0 0 0-1.066666-2.346667 4.202667 4.202667 0 0 0-2.453334-1.173333 3.925333 3.925333 0 0 0-4.053333 3.52c-1.130667 5.482667-3.989333 10.453333-8.533333 14.976-4.544 4.522667-9.450667 8.106667-14.72 10.730666a3.968 3.968 0 0 0-1.813334 2.346667 3.712 3.712 0 0 0 0.32 2.88 3.562667 3.562667 0 0 0 2.197334 1.813333c0.938667 0.277333 1.898667 0.170667 2.816-0.32a49.706667 49.706667 0 0 0 13.653333-8.533333c4.266667-3.690667 7.530667-7.530667 9.813333-11.52 2.410667 4.053333 5.76 7.936 9.984 11.626667 4.224 3.690667 8.725333 6.506667 13.482667 8.426666a3.712 3.712 0 0 0 2.88 0.32l-0.981333 0.149334z m-60.8-7.232l0.981333-0.170667a3.562667 3.562667 0 0 0 2.133333-1.92 4.032 4.032 0 0 0 0.213334-2.88l-6.506667-18.346667a4.266667 4.266667 0 0 0-1.984-2.197333 3.626667 3.626667 0 0 0-2.922667-0.149333 4.010667 4.010667 0 0 0-2.133333 1.984 4.117333 4.117333 0 0 0-0.213333 2.922666l6.613333 18.346667c0.362667 1.002667 1.002667 1.706667 1.92 2.090667 0.917333 0.384 1.877333 0.426667 2.88 0.149333l-0.981333 0.170667z m35.434666 13.162666c1.066667 0 1.962667-0.384 2.666667-1.130666a3.669333 3.669333 0 0 0 1.066667-2.602667v-7.68a3.669333 3.669333 0 0 0-1.066667-2.624 3.52 3.52 0 0 0-2.666667-1.109333 3.712 3.712 0 0 0-2.709333 1.130666 3.584 3.584 0 0 0-1.130667 2.602667v7.68c0 1.002667 0.384 1.877333 1.130667 2.624a3.712 3.712 0 0 0 2.709333 1.109333z m6.464 57.386667c0.96 0.213333 1.898667 0.064 2.816-0.426667a4.053333 4.053333 0 0 0 1.6-2.453333 3.797333 3.797333 0 0 0-0.533333-2.88l-6.933333-8.32 18.026666-34.56a4.266667 4.266667 0 0 0-0.256-3.797333 3.370667 3.370667 0 0 0-3.157333-1.749334h-37.333333a3.584 3.584 0 0 0-2.624 1.130667 3.712 3.712 0 0 0-1.109334 2.709333c0 1.002667 0.384 1.877333 1.130667 2.666667a3.498667 3.498667 0 0 0 2.602667 1.173333h31.786666l-14.08 26.346667-9.173333-11.306667a3.797333 3.797333 0 0 0-2.389333-1.536 3.904 3.904 0 0 0-2.837334 0.576 3.968 3.968 0 0 0-1.173333 5.226667l21.226667 25.6a4.053333 4.053333 0 0 0 2.389333 1.6z m-49.237333-1.813333a3.754667 3.754667 0 0 0 2.837333-0.704 3.968 3.968 0 0 0 1.536-2.496l6.506667-44.373334a4.138667 4.138667 0 0 0-0.789333-2.837333 3.968 3.968 0 0 0-2.517334-1.536 3.584 3.584 0 0 0-2.773333 0.704 4.053333 4.053333 0 0 0-1.493333 2.496l-6.506667 44.586667a4.096 4.096 0 0 0 0.746667 2.773333 3.456 3.456 0 0 0 2.453333 1.386667z" fill="#000000" p-id="48886"></path></svg>