<?xml version="1.0" standalone="no"?><!DOCTYPE svg PUBLIC "-//W3C//DTD SVG 1.1//EN" "http://www.w3.org/Graphics/SVG/1.1/DTD/svg11.dtd"><svg t="1681463579517" class="icon" viewBox="0 0 1024 1024" version="1.1" xmlns="http://www.w3.org/2000/svg" p-id="6379" xmlns:xlink="http://www.w3.org/1999/xlink" width="200" height="200"><path d="M864 768h-704c-17.6 0-32-14.4-32-32S142.4 704 160 704h704c17.6 0 32 14.4 32 32s-14.4 32-32 32zM864 554.666667h-704c-17.6 0-32-14.4-32-32S142.4 490.666667 160 490.666667h704c17.6 0 32 14.4 32 32s-14.4 32-32 32zM864 341.333333h-704c-17.6 0-32-14.4-32-32S142.4 277.333333 160 277.333333h704c17.6 0 32 14.4 32 32s-14.4 32-32 32z" fill="#A8A8B4" p-id="6380"></path></svg>