<?xml version="1.0" standalone="no"?><!DOCTYPE svg PUBLIC "-//W3C//DTD SVG 1.1//EN" "http://www.w3.org/Graphics/SVG/1.1/DTD/svg11.dtd"><svg t="1681463798661" class="icon" viewBox="0 0 1024 1024" version="1.1" xmlns="http://www.w3.org/2000/svg" p-id="22996" xmlns:xlink="http://www.w3.org/1999/xlink" width="200" height="200"><path d="M361.984 170.496c-23.04 0-43.52 8.192-58.88 21.504-11.776 9.728-19.968 22.528-25.088 36.864-7.68 22.528-31.744 34.304-54.272 26.624s-34.304-31.744-26.624-54.272c9.728-28.672 27.136-54.272 50.176-73.728 31.744-27.136 67.584-42.496 109.568-42.496 95.232 0 179.2 75.264 179.2 170.496s-78.848 170.496-174.08 170.496h-42.496V341.504h42.496C411.648 341.504 450.56 302.08 450.56 256s-38.912-85.504-88.576-85.504z" fill="#C1C1C1" p-id="22997"></path><path d="M725.504 298.496c-23.04 0-43.52 8.192-58.88 21.504-11.776 9.728-19.968 22.528-25.088 36.864-7.68 22.528-31.744 34.304-54.272 26.624s-34.304-31.744-26.624-54.272c9.728-28.672 27.136-54.272 50.176-74.24 31.744-27.136 72.704-42.496 114.688-42.496 95.232 0 174.08 75.264 174.08 170.496s-78.848 170.496-174.08 170.496h-42.496V469.504h42.496c50.176 0 88.576-39.424 88.576-85.504s-38.912-85.504-88.576-85.504z" fill="#A9AAAA" p-id="22998"></path><path d="M848.896 725.504c-21.504 0-42.496-7.68-58.88-21.504-11.776-9.728-19.968-22.528-25.088-36.864-7.68-22.528-31.744-34.304-54.272-26.624-22.528 7.68-34.304 31.744-26.624 54.272 9.728 28.672 27.136 54.272 50.176 73.728 30.72 26.624 70.656 42.496 114.688 42.496 95.232 0 174.08-75.264 174.08-170.496s-78.848-170.496-174.08-170.496h-42.496v85.504h42.496c50.176 0 88.576 39.424 88.576 85.504s-38.4 84.48-88.576 84.48z" fill="#A9AAAA" p-id="22999"></path><path d="M482.816 810.496c-17.408 0-32.768-6.144-44.544-16.384-8.704-7.168-15.36-16.896-18.944-27.648-7.68-22.528-31.744-34.304-54.272-26.624s-34.304 31.744-26.624 54.272c8.704 25.088 24.064 47.616 44.032 64.512 27.136 23.04 61.952 36.864 100.352 36.864 82.944 0 152.064-66.048 152.064-149.504s-69.12-149.504-152.064-149.504l-42.496 1.024v84.48h42.496c37.888 0 67.072 29.696 67.072 64-0.512 34.816-29.184 64.512-67.072 64.512z" fill="#C1C1C1" p-id="23000"></path><path d="M48.128 469.504C23.04 469.504 2.56 488.448 2.56 512c0 23.552 20.48 42.496 45.568 42.496l762.88 1.024V469.504H48.128z" fill="#A9AAAA" p-id="23001"></path><path d="M138.752 341.504c-23.04 0-41.984 18.944-41.984 42.496 0 23.552 18.944 42.496 41.984 42.496h230.4V340.992l-230.4 0.512zM142.336 598.016c-25.088 0-45.568 18.944-45.568 42.496s20.48 42.496 45.568 42.496l307.2-1.024v-84.48l-307.2 0.512z" fill="#C1C1C1" p-id="23002"></path></svg>