<?xml version="1.0" standalone="no"?><!DOCTYPE svg PUBLIC "-//W3C//DTD SVG 1.1//EN" "http://www.w3.org/Graphics/SVG/1.1/DTD/svg11.dtd"><svg t="1681464155188" class="icon" viewBox="0 0 1024 1024" version="1.1" xmlns="http://www.w3.org/2000/svg" p-id="1645" xmlns:xlink="http://www.w3.org/1999/xlink" width="200" height="200"><path d="M512 66.133333a149.461333 149.461333 0 0 1 149.376 144.32l0.085333 5.141334v51.584h-42.944v42.666666h42.944v-42.666666h22.037334a21.333333 21.333333 0 0 1 2.496 42.538666l-2.496 0.128h-22.037334v40.490667h-42.944v42.666667h42.922667l0.021333-42.666667h22.037334a21.333333 21.333333 0 0 1 2.496 42.538667l-2.496 0.128h-22.058667v40.490666h-42.922667v42.666667h42.922667v-42.666667h22.058667a21.333333 21.333333 0 0 1 2.496 42.538667l-2.496 0.128h-22.058667l0.021333 84.8 3.392 2.709333a239.637333 239.637333 0 0 1 86.72 170.581334l0.32 7.210666 0.106667 7.253334c0 132.565333-107.456 240-240 240s-240-107.434667-240-240c0-70.378667 30.570667-135.573333 81.770667-180.48l5.376-4.565334 3.370666-2.709333V215.594667a149.482667 149.482667 0 0 1 139.242667-149.12l5.12-0.256L512 66.133333z m0 85.333334c-34.133333 0-62.08 26.688-64.021333 60.373333l-0.106667 3.754667-0.021333 367.189333a42.666667 42.666667 0 0 1-19.541334 35.84 154.666667 154.666667 0 1 0 167.381334 0 42.666667 42.666667 0 0 1-19.392-32.234667l-0.149334-3.626666v-367.146667A64.128 64.128 0 0 0 512 151.466667z" fill="#FF0505" p-id="1646"></path><path d="M512 240.768c16.170667 0 29.290667 13.12 29.290667 29.312l0.021333 375.722667a111.957333 111.957333 0 1 1-58.624 0V270.08c0-16.192 13.141333-29.312 29.312-29.312z" fill="#FF0505" p-id="1647"></path><path d="M513.152 791.338667c24.469333 0 44.288 16.789333 44.288-12.672 0-29.44-19.84-53.333333-44.288-53.333334-24.469333 0-44.288 23.893333-44.288 53.333334s19.84 12.672 44.288 12.672z" fill="#FFFFFF" p-id="1648"></path><path d="M513.152 714.666667c-30.826667 0-54.954667 29.056-54.954667 64 0 14.314667 4.352 23.701333 14.656 27.008a21.333333 21.333333 0 0 0 10.602667 1.066666l4.330667-0.682666 9.322666-1.92c7.018667-1.493333 11.434667-2.133333 16.042667-2.133334 3.690667 0 7.253333 0.426667 12.117333 1.344l13.226667 2.709334 4.352 0.682666a21.333333 21.333333 0 0 0 10.602667-1.066666c10.304-3.306667 14.656-12.693333 14.656-27.008 0-34.944-24.106667-64-54.954667-64z m0 21.333333c18.090667 0 33.621333 18.709333 33.621333 42.666667l-0.106666 6.272c0 0.426667 0.064 0.490667 0.256 0.426666l-0.362667 0.085334h-1.109333l-1.877334-0.213334-4.885333-0.896-5.034667-1.066666c-8.362667-1.770667-14.037333-2.602667-20.501333-2.602667-5.162667 0-9.813333 0.533333-15.786667 1.664l-13.312 2.688-2.368 0.362667-1.450666 0.106666a2.922667 2.922667 0 0 1-0.853334-0.128c0.128 0.042667 0.213333 0.021333 0.213334-0.106666l0.042666-0.896-0.106666-5.696c0-23.957333 15.530667-42.666667 33.621333-42.666667z" fill="#000000" p-id="1649"></path><path d="MNaN NaNCNaN NaN NaN NaN NaN NaN NaN NaN NaN NaN NaN NaNcNaN NaN NaN NaN NaN NaN NaN NaN NaN NaN NaN NaNCNaN NaN NaN NaN NaN NaNSNaN NaN NaN NaNcNaN NaN NaN NaN NaN NaN NaN NaN NaN NaN NaN NaNz" fill="#FFFFFF" p-id="1650"></path><path d="MNaN NaNLNaN NaNlNaN NaNCNaN NaN NaN NaN NaN NaNlNaN NaN NaN NaNCNaN NaN NaN NaN NaN NaN NaN NaN NaN NaN NaN NaN NaN NaN NaN NaN NaN NaNcNaN NaN NaN NaN NaN NaNlNaN NaN NaN NaNcNaN NaN NaN NaN NaN NaNLNaN NaN NaN NaNlNaN NaNANaN NaN NaN 0 0 NaN NaNlNaN NaN NaN NaN NaN NaN NaN NaNzMNaN NaNcNaN NaN NaN NaN NaN NaN NaN NaN NaN NaN NaN NaN NaN NaN NaN NaN NaN NaNlNaN NaNcNaN NaN NaN NaN NaN NaNCNaN NaN NaN NaN NaN NaNSNaN NaN NaN NaNcNaN NaN NaN NaN NaN NaN NaN NaN NaN NaN NaN NaNlNaN NaN NaN NaNCNaN NaN NaN NaN NaN NaNz" fill="#000000" p-id="1651"></path><path d="MNaN NaNmNaN NaNaNaN NaN NaN 1 0 NaN NaN NaN NaN NaN 1 0 NaN NaNZ" fill="#000000" p-id="1652"></path><path d="MNaN NaNCNaN NaN NaN NaN NaN NaN NaN NaN NaN NaN NaN NaNcNaN NaN NaN NaN NaN NaN NaN NaN NaN NaN NaN NaNCNaN NaN NaN NaN NaN NaNSNaN NaN NaN NaNcNaN NaN NaN NaN NaN NaN NaN NaN NaN NaN NaN NaNz" fill="#FFFFFF" p-id="1653"></path><path d="MNaN NaNLNaN NaNlNaN NaNCNaN NaN NaN NaN NaN NaNlNaN NaN NaN NaNCNaN NaN NaN NaN NaN NaN NaN NaN NaN NaN NaN NaN NaN NaN NaN NaN NaN NaNcNaN NaN NaN NaN NaN NaNlNaN NaN NaN NaNcNaN NaN NaN NaN NaN NaNLNaN NaN NaN NaNlNaN NaNANaN NaN NaN 0 0 NaN NaNlNaN NaN NaN NaN NaN NaN NaN NaNzMNaN NaNcNaN NaN NaN NaN NaN NaN NaN NaN NaN NaN NaN NaN NaN NaN NaN NaN NaN NaNlNaN NaNcNaN NaN NaN NaN NaN NaNCNaN NaN NaN NaN NaN NaNSNaN NaN NaN NaNcNaN NaN NaN NaN NaN NaN NaN NaN NaN NaN NaN NaNlNaN NaN NaN NaNCNaN NaN NaN NaN NaN NaNz" fill="#000000" p-id="1654"></path><path d="MNaN NaNmNaN NaNaNaN NaN NaN 1 0 NaN NaN NaN NaN NaN 1 0 NaN NaNZ" fill="#000000" p-id="1655"></path><path d="M148.266667 277.76a3.584 3.584 0 0 0 2.602666-1.130667 3.712 3.712 0 0 0 1.130667-2.709333v-25.066667l8.32-4.053333a3.712 3.712 0 0 0 1.984-2.176 3.712 3.712 0 0 0-0.277333-2.944 3.776 3.776 0 0 0-2.133334-1.856 3.584 3.584 0 0 0-2.773333 0.149333l-5.12 2.56v-10.986666h6.08c1.066667 0 1.984-0.362667 2.709333-1.066667a3.52 3.52 0 0 0 1.130667-2.666667 3.712 3.712 0 0 0-1.130667-2.730666 3.712 3.712 0 0 0-2.709333-1.109334h-6.08V212.48a3.712 3.712 0 0 0-1.130667-2.730667 3.584 3.584 0 0 0-2.602666-1.109333 3.712 3.712 0 0 0-2.730667 1.130667 3.712 3.712 0 0 0-1.109333 2.709333v9.493333h-7.253334a3.754667 3.754667 0 0 0-2.666666 1.130667 3.626667 3.626667 0 0 0-1.173334 2.709333c0 1.066667 0.384 1.962667 1.173334 2.666667a3.84 3.84 0 0 0 2.666666 1.066667h7.253334v14.613333l-9.493334 4.693333a3.562667 3.562667 0 0 0-1.92 2.090667 3.84 3.84 0 0 0 0.106667 2.922667 3.712 3.712 0 0 0 2.197333 1.962666c0.96 0.32 1.92 0.234667 2.922667-0.256l6.186667-2.986666v21.333333c0 1.066667 0.384 1.962667 1.130666 2.709333a3.712 3.712 0 0 0 2.709334 1.130667z m19.669333 0.042667l0.981333-0.213334a3.712 3.712 0 0 0 2.176-1.962666c3.413333-6.826667 6.229333-14.762667 8.426667-23.786667l4.906667 3.306667c0.917333 0.490667 1.877333 0.64 2.88 0.469333a3.712 3.712 0 0 0 2.453333-1.642667 3.968 3.968 0 0 0 0.426667-2.816 3.626667 3.626667 0 0 0-1.6-2.304l-7.36-4.906666c0.789333-4.693333 1.450667-9.706667 2.026666-15.04h9.6c0.149333 8.810667 0.746667 16.682667 1.813334 23.573333 1.28 7.893333 3.370667 15.509333 6.293333 22.826667 0.426667 1.002667 1.109333 1.706667 2.026667 2.090666a4.48 4.48 0 0 0 2.986666 0.149334 3.562667 3.562667 0 0 0 2.026667-2.026667 4.736 4.736 0 0 0 0.106667-2.986667 108.053333 108.053333 0 0 1-5.973334-21.226666 160.106667 160.106667 0 0 1-1.813333-25.92v-0.32a3.84 3.84 0 0 0-1.066667-2.666667 3.456 3.456 0 0 0-2.666666-1.173333h-12.8l0.32-8.64a3.797333 3.797333 0 0 0-1.066667-2.709334 3.413333 3.413333 0 0 0-2.56-1.130666 3.797333 3.797333 0 0 0-2.730667 1.066666 3.413333 3.413333 0 0 0-1.109333 2.56c-0.064 3.136-0.213333 6.08-0.426667 8.853334h-7.253333a3.626667 3.626667 0 0 0-2.709333 1.173333 3.754667 3.754667 0 0 0 0 5.333333 3.626667 3.626667 0 0 0 2.709333 1.173334h6.72c-0.362667 3.690667-0.853333 7.210667-1.493333 10.56l-2.88-2.026667a3.498667 3.498667 0 0 0-2.773334-0.533333 4.501333 4.501333 0 0 0-2.56 1.6 4.096 4.096 0 0 0-0.426666 2.88 3.626667 3.626667 0 0 0 1.6 2.346666l5.546666 3.733334a110.506667 110.506667 0 0 1-8.426666 24.853333 4.032 4.032 0 0 0-0.213334 2.88 3.52 3.52 0 0 0 1.92 2.24c1.002667 0.426667 1.962667 0.469333 2.944 0.149333l-0.981333 0.213334zM135.893333 307.84a3.626667 3.626667 0 0 0 2.88-0.32 4.074667 4.074667 0 0 0 1.813334-2.24l5.44-18.986667a3.626667 3.626667 0 0 0-2.56-4.586666 3.946667 3.946667 0 0 0-2.922667 0.256 3.413333 3.413333 0 0 0-1.770667 2.197333l-5.546666 18.986667a4.16 4.16 0 0 0 0.426666 2.922666c0.490667 0.896 1.237333 1.493333 2.24 1.770667z m25.706667 0.213333c1.066667-0.213333 1.92-0.725333 2.496-1.536a3.754667 3.754667 0 0 0 0.704-2.837333l-2.773333-18.986667a3.754667 3.754667 0 0 0-1.536-2.453333 3.882667 3.882667 0 0 0-2.837334-0.64 3.392 3.392 0 0 0-2.453333 1.450667 3.882667 3.882667 0 0 0-0.64 2.816l2.773333 18.88c0.149333 1.066667 0.64 1.92 1.429334 2.496 0.832 0.618667 1.770667 0.874667 2.837333 0.810666z m43.946667 0c1.066667-0.213333 1.92-0.725333 2.496-1.536a3.754667 3.754667 0 0 0 0.704-2.837333l-2.666667-18.986667a3.754667 3.754667 0 0 0-1.536-2.453333 3.882667 3.882667 0 0 0-2.837333-0.64 3.562667 3.562667 0 0 0-2.496 1.450667 3.754667 3.754667 0 0 0-0.704 2.816l2.773333 18.88a3.946667 3.946667 0 0 0 4.266667 3.306666z m-21.973334 0c1.066667-0.213333 1.92-0.725333 2.496-1.536a3.754667 3.754667 0 0 0 0.704-2.837333l-2.773333-18.986667a3.392 3.392 0 0 0-1.450667-2.453333 3.882667 3.882667 0 0 0-2.816-0.64 3.562667 3.562667 0 0 0-2.517333 1.450667 3.754667 3.754667 0 0 0-0.682667 2.816l2.773334 18.88a3.946667 3.946667 0 0 0 4.266666 3.306666z" fill="#000000" p-id="1656"></path></svg>