<?xml version="1.0" standalone="no"?><!DOCTYPE svg PUBLIC "-//W3C//DTD SVG 1.1//EN" "http://www.w3.org/Graphics/SVG/1.1/DTD/svg11.dtd"><svg t="1681463603186" class="icon" viewBox="0 0 1024 1024" version="1.1" xmlns="http://www.w3.org/2000/svg" p-id="13562" xmlns:xlink="http://www.w3.org/1999/xlink" width="200" height="200"><path d="M511.813818 256c108.264727 0 201.053091 66.210909 240.197818 160.302545 87.901091 12.334545 155.624727 87.668364 155.624728 178.967273a180.968727 180.968727 0 0 1-167.377455 180.456727v-26.018909c0-14.545455-2.420364-28.532364-6.912-41.565091a113.175273 113.175273 0 0 0 106.426182-112.872727 113.361455 113.361455 0 0 0-97.186909-111.755636l-38.330182-5.376-14.894545-35.770182a191.837091 191.837091 0 0 0-177.57091-118.504727c-89.646545 0-168.587636 63.511273-187.671272 151.04l-10.472728 47.941818-48.826181 5.073454a90.181818 90.181818 0 0 0-80.989091 89.972364 90.600727 90.600727 0 0 0 75.147636 89.181091 127.441455 127.441455 0 0 0-7.284364 42.635636v24.855273a158.394182 158.394182 0 0 1 6.120728-314.135273C283.345455 343.552 387.281455 256 511.813818 256z" fill="#A8A8B4" p-id="13563"></path></svg>