<?xml version="1.0" standalone="no"?><!DOCTYPE svg PUBLIC "-//W3C//DTD SVG 1.1//EN" "http://www.w3.org/Graphics/SVG/1.1/DTD/svg11.dtd"><svg t="1681464042227" class="icon" viewBox="0 0 1024 1024" version="1.1" xmlns="http://www.w3.org/2000/svg" p-id="39747" xmlns:xlink="http://www.w3.org/1999/xlink" width="200" height="200"><path d="M190.56 791.52a224.096 224.096 0 0 1 38.944-418.08C255.68 241.376 372.224 141.76 512 141.76c139.808 0 256.32 99.616 282.496 231.712a224.096 224.096 0 0 1 39.04 417.984l-0.064 0.032a32 32 0 0 1-27.456-57.824A160 160 0 0 0 736 429.76a224 224 0 0 0-448 0 160 160 0 0 0-68.672 304.576 32 32 0 1 1-28.8 57.184z m180.544-28.288a32 32 0 0 1 15.456 42.56l-27.04 57.984a32 32 0 1 1-57.984-27.072l27.04-57.984a32 32 0 0 1 42.528-15.488z m336 0a32 32 0 0 1 15.456 42.56l-27.04 57.984a32 32 0 1 1-57.984-27.072l27.04-57.984a32 32 0 0 1 42.528-15.488zM480 749.76h64a32 32 0 0 1 32 32v64a32 32 0 0 1-32 32h-64a32 32 0 0 1-32-32v-64a32 32 0 0 1 32-32z" fill="#333333" p-id="39748"></path></svg>